<?xml version="1.0" encoding="UTF-8"?>
<svg width="500px" height="515px" viewBox="0 0 500 515" xmlns="http://www.w3.org/2000/svg" xmlns:xlink="http://www.w3.org/1999/xlink" version="1.1">
 <!-- Generated by Pixelmator Pro 1.5.4 -->
 <defs>
  <path id="Ellipse" d="M475.477 255.116 C475.477 130.397 374.375 29.292 249.659 29.292 124.944 29.292 23.842 130.397 23.842 255.116 23.842 379.835 124.944 480.939 249.659 480.939 374.375 480.939 475.477 379.835 475.477 255.116 Z"/>
 </defs>
 <defs>
  <linearGradient id="linear-gradient" gradientUnits="userSpaceOnUse" x1="209.81" y1="387.282" x2="209.81" y2="109.237">
   <stop offset="0" stop-color="#e1e1e1" stop-opacity="1"/>
   <stop offset="1" stop-color="#ffffff" stop-opacity="1"/>
  </linearGradient>
 </defs>
 <use id="Ellipse-1" xlink:href="#Ellipse" fill="url(#linear-gradient)" fill-opacity="1" stroke="none"/>
 <defs>
  <linearGradient id="linear-gradient-1" gradientUnits="userSpaceOnUse" x1="210.728" y1="382.434" x2="210.728" y2="117.565">
   <stop offset="0" stop-color="#f4f4f4" stop-opacity="1"/>
   <stop offset="1" stop-color="#ececec" stop-opacity="1"/>
  </linearGradient>
 </defs>
 <defs>
  <path id="stroke-path" d="M297.422 36.453 L286.578 34.375 269.719 32.234 252.516 31.359 235.188 31.797 218.344 33.5 207.344 35.328 196.422 37.703 180.422 42.25 170.109 45.891 160.109 49.969 145.313 57.109 135.891 62.375 126.844 68.031 113.563 77.469 105.203 84.188 97.172 91.328 89.484 98.828 82.188 106.688 75.313 114.828 68.703 123.438 62.578 132.281 56.859 141.438 49.156 155.609 44.516 165.563 40.438 175.547 35.109 191.281 32.266 201.828 29.875 212.813 27.313 229.5 26.047 246.391 26.047 263.859 27.313 280.781 27.328 280.781 28.906 292.031 28.891 292.031 30.969 302.875 30.984 302.875 35.156 319.109 35.141 319.109 38.5 329.453 42.375 339.641 49.109 354.531 54.172 364.109 59.719 373.5 59.703 373.5 68.703 386.813 75.313 395.422 82.188 403.563 89.484 411.406 97.172 418.922 105.203 426.047 113.578 432.797 122.359 439.188 131.359 445.125 145.328 453.156 155.031 457.984 165 462.344 180.563 468.031 191 471.141 201.75 473.766 218.422 476.75 235.188 478.453 252.516 478.891 269.781 478.016 281 476.734 292.078 474.891 308.234 471.156 318.875 468 329.141 464.391 344.172 458.031 353.891 453.203 363.297 447.938 376.953 439.188 385.641 432.859 394 426.125 406.031 415.203 413.438 407.594 420.578 399.578 427.313 391.203 433.719 382.422 439.609 373.5 439.594 373.5 445.141 364.109 450.141 354.625 454.734 344.797 460.797 329.422 460.813 329.422 464.156 319.094 467.047 308.438 470.391 292.047 472.531 275.266 473.422 255.125 472.531 234.984 471.266 223.875 469.438 212.813 467.047 201.828 464.188 191.25 460.797 180.797 456.906 170.578 452.547 160.594 447.734 150.891 442.453 141.438 436.75 132.297 430.594 123.438 424 114.828 417.141 106.703 406.016 95.031 398.078 87.656 389.969 80.797 376.953 71.031 368.016 65.172 368.016 65.188 358.641 59.641 344.266 52.266 334.203 47.859 324.094 44.016 308.188 39.063 Z"/>
 </defs>
 <use id="Ellipse-2" stroke="url(#linear-gradient-1)" stroke-opacity="1" stroke-linecap="round" fill="none" stroke-width="4.087" xlink:href="#stroke-path"/>
 <path id="Logo-1" d="M250.414 426.878 C249.373 427.252 242.623 420.803 214.982 393.004 196.202 374.117 175.497 352.993 168.972 346.062 162.446 339.13 152.154 328.401 146.101 322.219 140.048 316.037 130.415 306.074 124.695 300.079 118.974 294.085 111.229 285.808 107.484 281.687 103.738 277.565 98.701 271.588 96.29 268.403 93.879 265.218 89.934 258.627 87.523 253.757 84.783 248.221 82.468 242.347 81.349 238.089 79.952 232.773 79.478 229.037 79.19 221.081 78.913 213.337 79.088 209.382 79.929 204.632 80.539 201.192 81.845 195.817 82.833 192.688 83.821 189.558 86.318 183.625 88.383 179.504 90.448 175.383 93.553 170.019 95.283 167.585 97.014 165.151 100.576 160.896 103.198 158.129 105.821 155.361 109.797 151.688 112.035 149.965 114.273 148.243 118.517 145.383 121.467 143.61 124.417 141.837 129.943 139.172 133.747 137.688 137.552 136.203 144.005 134.347 148.087 133.562 152.17 132.777 158.607 131.948 162.392 131.72 167.245 131.429 171.584 131.646 177.109 132.459 181.417 133.093 187.17 134.357 189.893 135.269 192.616 136.181 197.57 138.296 200.902 139.969 204.234 141.643 209.977 145.292 213.663 148.078 217.349 150.865 223.288 156.163 226.86 159.853 230.433 163.542 235.951 169.592 239.122 173.297 242.293 177.001 246.043 181.293 247.455 182.834 250.023 185.635 250.023 185.635 252.343 182.91 253.62 181.411 257.216 176.977 260.334 173.056 263.453 169.135 268.866 163.059 272.364 159.553 275.861 156.048 281.379 151.207 284.625 148.796 287.872 146.386 293.134 143.066 296.318 141.42 299.503 139.774 304.714 137.516 307.899 136.402 311.083 135.288 316.754 133.826 320.501 133.152 324.247 132.479 330.531 131.922 334.465 131.916 338.399 131.909 344.837 132.446 348.771 133.109 352.704 133.773 358.222 135.072 361.032 135.997 363.842 136.922 368.9 139.014 372.272 140.646 375.644 142.277 381.083 145.521 384.36 147.855 387.636 150.188 392.578 154.464 395.342 157.357 398.107 160.25 401.968 164.885 403.924 167.655 405.88 170.425 408.85 175.407 410.525 178.725 412.2 182.043 414.596 187.867 415.849 191.668 417.103 195.469 418.652 201.569 419.293 205.224 420.239 210.619 420.303 212.245 419.632 213.865 419.125 215.09 418.002 216.141 416.724 216.586 415.58 216.985 413.76 217.312 412.68 217.312 411.6 217.312 409.672 216.876 408.397 216.343 406.587 215.587 405.929 214.8 405.403 212.766 405.033 211.332 404.08 207.557 403.287 204.378 402.494 201.198 400.825 196.095 399.579 193.039 398.333 189.982 395.762 184.913 393.867 181.775 391.972 178.637 388.542 173.93 386.246 171.315 383.95 168.7 380.347 165.078 378.239 163.266 376.131 161.454 372.584 158.733 370.355 157.219 368.126 155.706 363.805 153.297 360.751 151.866 357.697 150.435 351.915 148.404 347.902 147.354 341.143 145.584 339.652 145.443 327.677 145.443 316.324 145.443 314.021 145.636 308.77 147.025 305.481 147.895 300.393 149.643 297.464 150.91 294.534 152.177 289.492 154.974 286.258 157.126 283.024 159.278 277.018 164.274 272.91 168.228 268.803 172.182 262.384 179.249 258.646 183.932 254.909 188.615 251.399 192.711 250.848 193.034 250.187 193.422 249.304 193.19 248.258 192.353 247.385 191.656 244.462 188.479 241.762 185.294 239.062 182.11 234.523 176.928 231.674 173.78 228.826 170.631 224.048 165.933 221.056 163.34 218.065 160.747 213.773 157.409 211.52 155.923 209.266 154.436 205.214 152.163 202.516 150.871 199.817 149.579 194.744 147.777 191.241 146.867 187.739 145.957 181.613 144.994 177.629 144.727 170.385 144.241 170.385 144.241 167.248 149.091 165.523 151.758 163.357 155.944 162.436 158.393 161.398 161.149 160.76 164.272 160.76 166.591 160.76 169.816 160.973 170.433 162.292 171.031 163.135 171.412 174.274 173.668 177.792 175.073 180.96 176.338 186.682 179.808 188.692 181.885 190.042 183.281 194.704 189.233 195.538 191.966 196.39 194.759 197.832 197.76 198.831 198.821 200.199 200.272 201.901 200.985 206.196 201.907 209.269 202.567 214.633 203.382 218.117 203.719 221.601 204.056 228.667 204.34 233.818 204.35 242.431 204.367 243.301 204.484 244.625 205.808 245.846 207.03 245.998 207.748 245.628 210.541 245.387 212.352 244.584 213.827 243.867 216.629 243.151 219.431 241.646 222.861 240.498 225.606 239.35 228.35 237.231 232.451 235.79 234.719 234.35 236.987 230.617 241.584 227.519 243.196 220.859 246.662 186.382 254.056 182.801 254.241 179.215 254.426 176.649 254.923 175.543 255.648 174.346 256.432 173.301 258.364 172.063 262.081 171.09 265.002 169.84 269.536 169.285 272.155 168.634 275.228 168.272 284.263 168.265 291.423 168.257 298.678 168.606 304.234 169.274 307.467 169.836 310.187 171.326 315.462 172.585 319.189 173.844 322.916 176.138 328.925 177.682 332.543 179.226 336.16 181.736 341.694 183.26 344.841 185.971 350.44 186.624 351.156 213.929 378.456 230.933 395.456 242.33 406.349 243.112 406.349 243.818 406.349 247.572 403.637 251.454 400.322 255.336 397.007 261.285 392.204 264.674 389.65 268.063 387.095 273.287 383.523 276.282 381.712 279.278 379.901 286.314 376.203 291.919 373.494 297.523 370.785 303.153 368.361 304.43 368.108 306.61 367.675 306.726 367.744 306.335 369.236 306.107 370.11 298.607 378.205 289.668 387.225 280.73 396.245 268.531 408.752 262.558 415.018 256.586 421.285 251.121 426.621 250.414 426.878 Z" fill="#531b93" fill-opacity="1" stroke="none"/>
 <path id="comb-and-scissor-2" d="M317.159 361.6 C316.78 361.727 311.8 358.141 306.092 353.63 297.255 346.646 295.747 345.184 295.925 343.775 296.045 342.826 304.384 331.907 315.488 318.161 334.843 294.203 334.843 294.203 334.826 287.467 334.809 280.732 334.809 280.732 330.98 277.336 327.151 273.941 327.151 273.941 326.67 258.413 326.405 249.872 326.024 237.521 325.822 230.964 325.62 224.408 325.274 214.676 325.055 209.337 324.83 203.869 324.919 199.63 325.259 199.63 325.591 199.629 326.217 200.317 326.649 201.159 327.082 202.001 329.025 211.422 330.966 222.096 332.908 232.769 335.381 246.557 336.463 252.737 337.544 258.916 339.081 267.802 339.877 272.484 340.674 277.165 341.552 281.889 341.828 282.981 342.308 284.875 343.455 283.575 366.811 254.648 388.529 227.749 391.505 224.329 393.198 224.325 394.636 224.322 397.526 226.324 404.929 232.451 414.672 240.516 414.741 240.593 413.425 241.916 412.431 242.915 411.761 243.092 410.756 242.623 410.018 242.278 406.702 239.858 403.387 237.243 400.072 234.629 396.977 232.391 396.508 232.271 396.039 232.151 395.669 232.612 395.684 233.295 395.7 233.997 397.566 235.96 399.972 237.807 402.316 239.605 405.453 242.104 406.944 243.361 409.434 245.46 409.566 245.736 408.57 246.76 407.571 247.786 406.928 247.422 400.384 242.113 395.672 238.29 393.054 236.58 392.603 237.029 392.151 237.48 392.509 238.203 393.672 239.188 394.634 240.003 397.782 242.6 400.669 244.961 403.555 247.321 405.917 249.547 405.918 249.908 405.919 250.268 405.454 250.744 404.884 250.964 404.225 251.219 401.339 249.337 396.957 245.797 392.612 242.286 389.829 240.468 389.422 240.877 389.016 241.285 391.464 243.723 396.049 247.475 402.581 252.821 403.214 253.532 402.279 254.472 401.344 255.412 401.008 255.34 398.983 253.765 397.742 252.8 394.818 250.454 392.484 248.55 390.15 246.647 387.738 244.898 387.126 244.665 386.328 244.361 386.08 244.564 386.253 245.377 386.387 246.002 388.646 248.22 391.273 250.306 393.901 252.392 396.972 254.82 398.096 255.701 400.003 257.195 400.065 257.38 399.011 258.439 397.957 259.499 397.423 259.203 391.093 254.053 387.359 251.016 383.955 248.531 383.529 248.532 383.103 248.534 382.755 248.815 382.756 249.157 382.756 249.5 384.83 251.41 387.364 253.403 389.898 255.396 393.036 257.987 394.336 259.16 396.365 260.99 396.574 261.447 395.806 262.377 395.013 263.337 394.126 262.821 388.064 257.873 384.299 254.8 380.923 252.174 380.563 252.038 380.202 251.902 380.014 252.26 380.145 252.834 380.276 253.408 382.241 255.354 384.512 257.159 386.783 258.964 389.846 261.433 391.318 262.644 393.731 264.631 393.891 264.951 392.945 265.902 391.998 266.853 391.22 266.42 385.028 261.498 381.251 258.496 377.794 256.04 377.345 256.041 376.896 256.043 376.631 256.344 376.757 256.711 376.883 257.078 380 259.806 383.684 262.771 387.369 265.737 390.405 268.406 390.432 268.703 390.46 269 390.024 269.534 389.463 269.89 388.69 270.38 386.754 269.175 381.468 264.916 376.553 260.956 374.28 259.51 373.772 260.02 373.265 260.53 373.723 261.307 375.325 262.65 376.575 263.698 379.878 266.345 382.664 268.533 387.342 272.205 387.645 272.594 386.624 273.62 385.849 274.399 385.235 274.532 384.572 274.064 384.052 273.697 380.959 271.258 377.699 268.643 374.439 266.028 371.463 263.778 371.086 263.642 370.708 263.506 370.506 263.864 370.637 264.437 370.768 265.01 372.91 267.134 375.397 269.156 377.884 271.178 380.892 273.59 382.081 274.516 383.613 275.709 384.111 276.546 383.791 277.387 383.542 278.039 382.989 278.483 382.561 278.372 382.134 278.261 378.778 275.756 375.105 272.805 370.653 269.229 368.201 267.668 367.748 268.123 367.295 268.578 369.255 270.557 373.63 274.057 377.239 276.945 380.367 279.763 380.582 280.319 380.797 280.874 380.642 281.661 380.237 282.068 379.71 282.599 377.66 281.334 372.984 277.592 369.399 274.723 366.005 272.2 365.443 271.985 364.84 271.756 364.426 271.976 364.436 272.52 364.445 273.028 366.212 274.766 368.362 276.381 370.513 277.996 373.65 280.511 375.333 281.97 378.096 284.362 378.292 284.725 377.344 285.678 376.397 286.631 375.597 286.172 369.169 280.984 364.504 277.219 361.812 275.465 361.372 275.903 360.932 276.342 361.49 277.186 362.996 278.359 364.259 279.342 367.327 281.806 369.814 283.834 372.301 285.863 374.337 288.028 374.339 288.646 374.34 289.264 373.882 289.77 373.32 289.772 372.758 289.773 369.288 287.36 365.609 284.41 361.237 280.903 358.688 279.277 358.253 279.714 357.817 280.152 359.426 281.84 362.897 284.588 365.818 286.9 369.056 289.486 370.092 290.336 371.757 291.701 371.869 292.028 371.055 293.146 370.194 294.33 369.665 294.031 362.903 288.538 358.151 284.678 355.504 282.935 355.184 283.456 354.902 283.915 355.536 284.991 356.686 286.007 357.781 286.974 360.21 288.968 362.085 290.438 363.96 291.909 366.253 293.817 367.181 294.679 368.682 296.072 368.755 296.359 367.848 297.271 366.94 298.183 366.038 297.661 359.69 292.553 354.928 288.72 352.326 287.036 351.873 287.492 351.419 287.948 351.872 288.708 353.232 289.774 354.354 290.653 357.422 293.082 360.05 295.171 362.718 297.292 364.829 299.5 364.831 300.171 364.832 300.833 364.374 301.375 363.812 301.376 363.25 301.377 359.786 298.969 356.113 296.024 352.441 293.079 349.217 290.89 348.948 291.161 348.68 291.431 349.24 292.314 350.193 293.123 351.146 293.932 353.604 295.945 355.654 297.598 357.704 299.25 360.141 301.311 361.069 302.178 362.556 303.567 362.637 303.873 361.754 304.762 360.87 305.65 359.905 305.089 353.614 300.025 349.053 296.355 346.241 294.518 345.824 294.937 345.407 295.356 345.768 296.06 346.824 296.887 347.733 297.599 351.041 300.241 354.174 302.759 359.305 306.882 359.767 307.441 358.824 308.389 357.916 309.301 357.598 309.314 356.434 308.485 355.695 307.959 353.774 306.461 352.164 305.157 349.903 303.324 349.35 303.093 349.733 304.141 350.005 304.887 351.527 306.72 353.115 308.215 354.703 309.71 355.959 311.324 355.906 311.804 355.854 312.282 358.71 315.338 362.254 318.594 366.631 322.614 369.233 325.607 370.364 327.921 371.28 329.796 372.23 333.041 372.476 335.134 372.789 337.804 372.584 340.113 371.787 342.88 371.162 345.048 369.929 347.974 369.045 349.381 368.161 350.789 366.329 352.859 364.974 353.982 363.618 355.106 361.224 356.454 359.654 356.979 358.084 357.505 355.41 357.905 353.712 357.869 352.014 357.834 349.226 357.19 347.517 356.439 345.808 355.688 343.328 353.997 342.006 352.682 340.684 351.367 338.927 348.903 338.101 347.207 337.275 345.511 336.38 342.299 336.114 340.069 335.628 336.015 335.628 336.015 328.802 330.504 325.048 327.472 321.724 324.991 321.416 324.989 321.107 324.986 320.955 325.419 321.078 325.95 321.2 326.481 323.158 328.392 325.429 330.197 327.7 332.002 330.704 334.422 332.105 335.576 333.912 337.063 334.523 338.012 334.208 338.839 333.964 339.481 333.391 339.916 332.935 339.805 332.479 339.694 329.126 337.187 325.484 334.233 321.159 330.725 318.632 329.095 318.197 329.532 317.762 329.969 319.896 332.068 324.351 335.585 329.322 339.508 331.131 341.338 331.025 342.331 330.944 343.08 330.558 343.694 330.165 343.695 329.773 343.696 326.573 341.405 323.054 338.604 319.536 335.802 316.249 333.413 315.75 333.292 315.252 333.173 314.845 333.36 314.846 333.709 314.847 334.059 317.936 336.859 321.71 339.933 325.485 343.006 328.455 345.878 328.311 346.314 328.167 346.75 327.525 347.21 326.883 347.336 326.241 347.462 324.118 346.227 322.164 344.592 320.211 342.957 317.18 340.472 315.43 339.071 313.68 337.669 312.087 336.785 311.889 337.106 311.692 337.427 313.94 339.619 316.886 341.976 319.831 344.333 323.052 346.912 324.045 347.708 325.677 349.018 325.755 349.283 324.872 350.494 323.925 351.791 323.797 351.749 320.662 349.142 318.884 347.662 315.862 345.23 313.947 343.735 312.032 342.242 310.075 340.921 309.599 340.801 309.122 340.681 308.733 340.875 308.734 341.231 308.734 341.588 311.799 344.285 315.543 347.225 319.515 350.344 322.279 352.996 322.179 353.593 322.085 354.155 321.368 354.597 320.585 354.574 319.803 354.552 317.05 352.774 314.466 350.624 311.883 348.474 308.959 346.129 307.969 345.413 306.442 344.309 306.049 344.257 305.378 345.07 304.738 345.845 305.534 346.779 309.572 349.983 312.313 352.159 315.555 354.906 316.777 356.088 318.592 357.844 318.893 358.524 318.424 359.803 318.108 360.663 317.539 361.472 317.159 361.6 Z M354.861 351.24 C357.397 351.078 359.05 350.506 360.746 349.206 362.044 348.211 363.747 346.064 364.53 344.435 365.511 342.396 365.952 340.15 365.945 337.226 365.938 334.668 365.494 332.114 364.827 330.802 364.218 329.605 363.065 327.908 362.263 327.031 361.462 326.155 359.977 325.009 358.964 324.485 357.951 323.961 355.804 323.546 354.194 323.564 352.583 323.581 350.599 323.969 349.786 324.426 348.972 324.883 347.49 326.026 346.492 326.965 345.493 327.904 344.277 329.444 343.79 330.386 343.302 331.329 342.693 333.524 342.437 335.263 342.121 337.405 342.323 339.626 343.063 342.148 343.742 344.463 344.997 346.7 346.381 348.064 347.605 349.271 349.22 350.529 349.97 350.861 350.72 351.193 352.921 351.363 354.861 351.24 Z M335.934 331.328 C336.133 331.128 335.367 330.15 334.233 329.153 333.098 328.156 330.552 326.003 328.574 324.369 326.597 322.734 324.761 321.62 324.496 321.895 324.231 322.169 325.242 323.406 326.744 324.645 328.246 325.883 330.847 327.975 332.524 329.293 334.201 330.612 335.736 331.528 335.934 331.328 Z M335.432 325.615 C335.713 325.623 335.942 325.242 335.941 324.77 335.94 324.297 334.218 322.539 332.116 320.862 330.014 319.186 327.988 317.702 327.615 317.567 327.242 317.431 327.044 317.781 327.174 318.346 327.305 318.91 329.102 320.773 331.167 322.487 333.232 324.2 335.151 325.608 335.432 325.615 Z M335.092 318.516 C335.323 318.285 334.759 317.355 333.84 316.45 332.921 315.546 331.556 314.61 330.806 314.37 329.892 314.078 330.304 314.758 332.058 316.436 333.496 317.812 334.861 318.748 335.092 318.516 Z M334.527 312.689 C334.913 312.688 335.228 312.245 335.227 311.706 335.226 311.166 334.897 310.523 334.497 310.277 334.097 310.031 333.599 310.001 333.391 310.21 333.183 310.419 333.195 311.063 333.418 311.641 333.641 312.218 334.14 312.69 334.527 312.689 Z M333.756 268.078 C331.911 269.246 331.274 270.107 331.151 270.745 331.027 271.383 331.096 272.346 331.305 272.885 331.514 273.425 332.423 273.865 333.325 273.862 334.228 273.86 335.334 273.412 335.784 272.867 336.235 272.322 336.5 271.358 336.373 270.725 336.247 270.092 335.607 269.237 334.95 268.826 L333.756 268.078 Z M342.657 273.839 C342.335 273.84 341.529 270.873 340.866 267.246 339.823 261.534 339.789 260.439 340.613 259.061 341.136 258.186 345.235 253.711 349.723 249.116 354.211 244.522 362.545 235.846 368.244 229.837 373.942 223.828 379.535 218.336 380.672 217.633 381.808 216.93 382.904 216.519 383.105 216.72 383.307 216.921 381.996 219.206 380.191 221.798 378.386 224.39 372.521 232.682 367.159 240.224 361.796 247.766 354.221 258.415 350.326 263.888 346.43 269.36 342.979 273.838 342.657 273.839 Z M281.256 335.033 C278.868 335.18 276.157 334.929 274.997 334.454 273.872 333.993 272.011 333.104 270.86 332.478 269.71 331.852 267.913 330.111 266.866 328.608 265.819 327.105 264.544 324.712 264.032 323.288 263.52 321.865 263.085 319.453 263.065 317.929 263.045 316.405 263.516 313.5 264.112 311.474 264.708 309.448 266.089 306.486 267.18 304.892 268.271 303.297 270.166 301.224 271.392 300.284 272.618 299.344 274.982 297.987 276.645 297.267 278.309 296.547 281.945 295.755 284.726 295.507 287.507 295.26 292.256 294.421 295.28 293.644 298.304 292.866 303.363 291.014 306.523 289.527 309.682 288.04 313.967 285.553 316.046 284 318.124 282.447 321.1 279.765 322.66 278.04 325.497 274.904 325.497 274.904 327.754 277.113 329.972 279.282 329.992 279.354 328.881 281.197 328.258 282.228 325.874 285.682 323.583 288.873 321.291 292.064 314.545 301.584 308.591 310.028 302.636 318.473 296.472 326.78 294.892 328.488 293.313 330.196 290.546 332.309 288.745 333.184 286.748 334.153 283.825 334.875 281.256 335.033 Z M281.753 328.768 C283.228 328.579 285.545 327.797 286.901 327.031 288.257 326.264 290.157 324.641 291.123 323.424 292.089 322.207 293.392 319.699 294.02 317.851 294.681 315.903 295.017 313.418 294.82 311.941 294.633 310.539 293.912 308.427 293.217 307.248 292.523 306.068 291.133 304.494 290.128 303.749 289.124 303.005 286.815 302.256 284.996 302.086 282.953 301.895 280.786 302.157 279.327 302.773 278.027 303.321 276.04 304.553 274.911 305.51 273.782 306.468 272.156 308.665 271.298 310.393 270.248 312.509 269.742 314.738 269.748 317.219 269.753 319.247 270.244 321.84 270.84 322.986 271.436 324.13 272.602 325.696 273.431 326.465 274.26 327.233 275.868 328.143 277.005 328.487 278.141 328.831 280.278 328.958 281.753 328.768 Z" fill="#212121" fill-opacity="1" stroke="none"/>
 <path id="comb-and-scissor-2-1" d="M317.159 361.6 C316.78 361.727 311.8 358.141 306.092 353.63 297.255 346.646 295.747 345.184 295.925 343.775 296.045 342.826 304.384 331.907 315.488 318.161 334.843 294.203 334.843 294.203 334.826 287.467 334.809 280.732 334.809 280.732 330.98 277.336 327.151 273.941 327.151 273.941 326.67 258.413 326.405 249.872 326.024 237.521 325.822 230.964 325.62 224.408 325.274 214.676 325.055 209.337 324.83 203.869 324.919 199.63 325.259 199.63 325.591 199.629 326.217 200.317 326.649 201.159 327.082 202.001 329.025 211.422 330.966 222.096 332.908 232.769 335.381 246.557 336.463 252.737 337.544 258.916 339.081 267.802 339.877 272.484 340.674 277.165 341.552 281.889 341.828 282.981 342.308 284.875 343.455 283.575 366.811 254.648 388.529 227.749 391.505 224.329 393.198 224.325 394.636 224.322 397.526 226.324 404.929 232.451 414.672 240.516 414.741 240.593 413.425 241.916 412.431 242.915 411.761 243.092 410.756 242.623 410.018 242.278 406.702 239.858 403.387 237.243 400.072 234.629 396.977 232.391 396.508 232.271 396.039 232.151 395.669 232.612 395.684 233.295 395.7 233.997 397.566 235.96 399.972 237.807 402.316 239.605 405.453 242.104 406.944 243.361 409.434 245.46 409.566 245.736 408.57 246.76 407.571 247.786 406.928 247.422 400.384 242.113 395.672 238.29 393.054 236.58 392.603 237.029 392.151 237.48 392.509 238.203 393.672 239.188 394.634 240.003 397.782 242.6 400.669 244.961 403.555 247.321 405.917 249.547 405.918 249.908 405.919 250.268 405.454 250.744 404.884 250.964 404.225 251.219 401.339 249.337 396.957 245.797 392.612 242.286 389.829 240.468 389.422 240.877 389.016 241.285 391.464 243.723 396.049 247.475 402.581 252.821 403.214 253.532 402.279 254.472 401.344 255.412 401.008 255.34 398.983 253.765 397.742 252.8 394.818 250.454 392.484 248.55 390.15 246.647 387.738 244.898 387.126 244.665 386.328 244.361 386.08 244.564 386.253 245.377 386.387 246.002 388.646 248.22 391.273 250.306 393.901 252.392 396.972 254.82 398.096 255.701 400.003 257.195 400.065 257.38 399.011 258.439 397.957 259.499 397.423 259.203 391.093 254.053 387.359 251.016 383.955 248.531 383.529 248.532 383.103 248.534 382.755 248.815 382.756 249.157 382.756 249.5 384.83 251.41 387.364 253.403 389.898 255.396 393.036 257.987 394.336 259.16 396.365 260.99 396.574 261.447 395.806 262.377 395.013 263.337 394.126 262.821 388.064 257.873 384.299 254.8 380.923 252.174 380.563 252.038 380.202 251.902 380.014 252.26 380.145 252.834 380.276 253.408 382.241 255.354 384.512 257.159 386.783 258.964 389.846 261.433 391.318 262.644 393.731 264.631 393.891 264.951 392.945 265.902 391.998 266.853 391.22 266.42 385.028 261.498 381.251 258.496 377.794 256.04 377.345 256.041 376.896 256.043 376.631 256.344 376.757 256.711 376.883 257.078 380 259.806 383.684 262.771 387.369 265.737 390.405 268.406 390.432 268.703 390.46 269 390.024 269.534 389.463 269.89 388.69 270.38 386.754 269.175 381.468 264.916 376.553 260.956 374.28 259.51 373.772 260.02 373.265 260.53 373.723 261.307 375.325 262.65 376.575 263.698 379.878 266.345 382.664 268.533 387.342 272.205 387.645 272.594 386.624 273.62 385.849 274.399 385.235 274.532 384.572 274.064 384.052 273.697 380.959 271.258 377.699 268.643 374.439 266.028 371.463 263.778 371.086 263.642 370.708 263.506 370.506 263.864 370.637 264.437 370.768 265.01 372.91 267.134 375.397 269.156 377.884 271.178 380.892 273.59 382.081 274.516 383.613 275.709 384.111 276.546 383.791 277.387 383.542 278.039 382.989 278.483 382.561 278.372 382.134 278.261 378.778 275.756 375.105 272.805 370.653 269.229 368.201 267.668 367.748 268.123 367.295 268.578 369.255 270.557 373.63 274.057 377.239 276.945 380.367 279.763 380.582 280.319 380.797 280.874 380.642 281.661 380.237 282.068 379.71 282.599 377.66 281.334 372.984 277.592 369.399 274.723 366.005 272.2 365.443 271.985 364.84 271.756 364.426 271.976 364.436 272.52 364.445 273.028 366.212 274.766 368.362 276.381 370.513 277.996 373.65 280.511 375.333 281.97 378.096 284.362 378.292 284.725 377.344 285.678 376.397 286.631 375.597 286.172 369.169 280.984 364.504 277.219 361.812 275.465 361.372 275.903 360.932 276.342 361.49 277.186 362.996 278.359 364.259 279.342 367.327 281.806 369.814 283.834 372.301 285.863 374.337 288.028 374.339 288.646 374.34 289.264 373.882 289.77 373.32 289.772 372.758 289.773 369.288 287.36 365.609 284.41 361.237 280.903 358.688 279.277 358.253 279.714 357.817 280.152 359.426 281.84 362.897 284.588 365.818 286.9 369.056 289.486 370.092 290.336 371.757 291.701 371.869 292.028 371.055 293.146 370.194 294.33 369.665 294.031 362.903 288.538 358.151 284.678 355.504 282.935 355.184 283.456 354.902 283.915 355.536 284.991 356.686 286.007 357.781 286.974 360.21 288.968 362.085 290.438 363.96 291.909 366.253 293.817 367.181 294.679 368.682 296.072 368.755 296.359 367.848 297.271 366.94 298.183 366.038 297.661 359.69 292.553 354.928 288.72 352.326 287.036 351.873 287.492 351.419 287.948 351.872 288.708 353.232 289.774 354.354 290.653 357.422 293.082 360.05 295.171 362.718 297.292 364.829 299.5 364.831 300.171 364.832 300.833 364.374 301.375 363.812 301.376 363.25 301.377 359.786 298.969 356.113 296.024 352.441 293.079 349.217 290.89 348.948 291.161 348.68 291.431 349.24 292.314 350.193 293.123 351.146 293.932 353.604 295.945 355.654 297.598 357.704 299.25 360.141 301.311 361.069 302.178 362.556 303.567 362.637 303.873 361.754 304.762 360.87 305.65 359.905 305.089 353.614 300.025 349.053 296.355 346.241 294.518 345.824 294.937 345.407 295.356 345.768 296.06 346.824 296.887 347.733 297.599 351.041 300.241 354.174 302.759 359.305 306.882 359.767 307.441 358.824 308.389 357.916 309.301 357.598 309.314 356.434 308.485 355.695 307.959 353.774 306.461 352.164 305.157 349.903 303.324 349.35 303.093 349.733 304.141 350.005 304.887 351.527 306.72 353.115 308.215 354.703 309.71 355.959 311.324 355.906 311.804 355.854 312.282 358.71 315.338 362.254 318.594 366.631 322.614 369.233 325.607 370.364 327.921 371.28 329.796 372.23 333.041 372.476 335.134 372.789 337.804 372.584 340.113 371.787 342.88 371.162 345.048 369.929 347.974 369.045 349.381 368.161 350.789 366.329 352.859 364.974 353.982 363.618 355.106 361.224 356.454 359.654 356.979 358.084 357.505 355.41 357.905 353.712 357.869 352.014 357.834 349.226 357.19 347.517 356.439 345.808 355.688 343.328 353.997 342.006 352.682 340.684 351.367 338.927 348.903 338.101 347.207 337.275 345.511 336.38 342.299 336.114 340.069 335.628 336.015 335.628 336.015 328.802 330.504 325.048 327.472 321.724 324.991 321.416 324.989 321.107 324.986 320.955 325.419 321.078 325.95 321.2 326.481 323.158 328.392 325.429 330.197 327.7 332.002 330.704 334.422 332.105 335.576 333.912 337.063 334.523 338.012 334.208 338.839 333.964 339.481 333.391 339.916 332.935 339.805 332.479 339.694 329.126 337.187 325.484 334.233 321.159 330.725 318.632 329.095 318.197 329.532 317.762 329.969 319.896 332.068 324.351 335.585 329.322 339.508 331.131 341.338 331.025 342.331 330.944 343.08 330.558 343.694 330.165 343.695 329.773 343.696 326.573 341.405 323.054 338.604 319.536 335.802 316.249 333.413 315.75 333.292 315.252 333.173 314.845 333.36 314.846 333.709 314.847 334.059 317.936 336.859 321.71 339.933 325.485 343.006 328.455 345.878 328.311 346.314 328.167 346.75 327.525 347.21 326.883 347.336 326.241 347.462 324.118 346.227 322.164 344.592 320.211 342.957 317.18 340.472 315.43 339.071 313.68 337.669 312.087 336.785 311.889 337.106 311.692 337.427 313.94 339.619 316.886 341.976 319.831 344.333 323.052 346.912 324.045 347.708 325.677 349.018 325.755 349.283 324.872 350.494 323.925 351.791 323.797 351.749 320.662 349.142 318.884 347.662 315.862 345.23 313.947 343.735 312.032 342.242 310.075 340.921 309.599 340.801 309.122 340.681 308.733 340.875 308.734 341.231 308.734 341.588 311.799 344.285 315.543 347.225 319.515 350.344 322.279 352.996 322.179 353.593 322.085 354.155 321.368 354.597 320.585 354.574 319.803 354.552 317.05 352.774 314.466 350.624 311.883 348.474 308.959 346.129 307.969 345.413 306.442 344.309 306.049 344.257 305.378 345.07 304.738 345.845 305.534 346.779 309.572 349.983 312.313 352.159 315.555 354.906 316.777 356.088 318.592 357.844 318.893 358.524 318.424 359.803 318.108 360.663 317.539 361.472 317.159 361.6 Z M354.861 351.24 C357.397 351.078 359.05 350.506 360.746 349.206 362.044 348.211 363.747 346.064 364.53 344.435 365.511 342.396 365.952 340.15 365.945 337.226 365.938 334.668 365.494 332.114 364.827 330.802 364.218 329.605 363.065 327.908 362.263 327.031 361.462 326.155 359.977 325.009 358.964 324.485 357.951 323.961 355.804 323.546 354.194 323.564 352.583 323.581 350.599 323.969 349.786 324.426 348.972 324.883 347.49 326.026 346.492 326.965 345.493 327.904 344.277 329.444 343.79 330.386 343.302 331.329 342.693 333.524 342.437 335.263 342.121 337.405 342.323 339.626 343.063 342.148 343.742 344.463 344.997 346.7 346.381 348.064 347.605 349.271 349.22 350.529 349.97 350.861 350.72 351.193 352.921 351.363 354.861 351.24 Z M335.934 331.328 C336.133 331.128 335.367 330.15 334.233 329.153 333.098 328.156 330.552 326.003 328.574 324.369 326.597 322.734 324.761 321.62 324.496 321.895 324.231 322.169 325.242 323.406 326.744 324.645 328.246 325.883 330.847 327.975 332.524 329.293 334.201 330.612 335.736 331.528 335.934 331.328 Z M335.432 325.615 C335.713 325.623 335.942 325.242 335.941 324.77 335.94 324.297 334.218 322.539 332.116 320.862 330.014 319.186 327.988 317.702 327.615 317.567 327.242 317.431 327.044 317.781 327.174 318.346 327.305 318.91 329.102 320.773 331.167 322.487 333.232 324.2 335.151 325.608 335.432 325.615 Z M335.092 318.516 C335.323 318.285 334.759 317.355 333.84 316.45 332.921 315.546 331.556 314.61 330.806 314.37 329.892 314.078 330.304 314.758 332.058 316.436 333.496 317.812 334.861 318.748 335.092 318.516 Z M334.527 312.689 C334.913 312.688 335.228 312.245 335.227 311.706 335.226 311.166 334.897 310.523 334.497 310.277 334.097 310.031 333.599 310.001 333.391 310.21 333.183 310.419 333.195 311.063 333.418 311.641 333.641 312.218 334.14 312.69 334.527 312.689 Z M333.756 268.078 C331.911 269.246 331.274 270.107 331.151 270.745 331.027 271.383 331.096 272.346 331.305 272.885 331.514 273.425 332.423 273.865 333.325 273.862 334.228 273.86 335.334 273.412 335.784 272.867 336.235 272.322 336.5 271.358 336.373 270.725 336.247 270.092 335.607 269.237 334.95 268.826 L333.756 268.078 Z M342.657 273.839 C342.335 273.84 341.529 270.873 340.866 267.246 339.823 261.534 339.789 260.439 340.613 259.061 341.136 258.186 345.235 253.711 349.723 249.116 354.211 244.522 362.545 235.846 368.244 229.837 373.942 223.828 379.535 218.336 380.672 217.633 381.808 216.93 382.904 216.519 383.105 216.72 383.307 216.921 381.996 219.206 380.191 221.798 378.386 224.39 372.521 232.682 367.159 240.224 361.796 247.766 354.221 258.415 350.326 263.888 346.43 269.36 342.979 273.838 342.657 273.839 Z M281.256 335.033 C278.868 335.18 276.157 334.929 274.997 334.454 273.872 333.993 272.011 333.104 270.86 332.478 269.71 331.852 267.913 330.111 266.866 328.608 265.819 327.105 264.544 324.712 264.032 323.288 263.52 321.865 263.085 319.453 263.065 317.929 263.045 316.405 263.516 313.5 264.112 311.474 264.708 309.448 266.089 306.486 267.18 304.892 268.271 303.297 270.166 301.224 271.392 300.284 272.618 299.344 274.982 297.987 276.645 297.267 278.309 296.547 281.945 295.755 284.726 295.507 287.507 295.26 292.256 294.421 295.28 293.644 298.304 292.866 303.363 291.014 306.523 289.527 309.682 288.04 313.967 285.553 316.046 284 318.124 282.447 321.1 279.765 322.66 278.04 325.497 274.904 325.497 274.904 327.754 277.113 329.972 279.282 329.992 279.354 328.881 281.197 328.258 282.228 325.874 285.682 323.583 288.873 321.291 292.064 314.545 301.584 308.591 310.028 302.636 318.473 296.472 326.78 294.892 328.488 293.313 330.196 290.546 332.309 288.745 333.184 286.748 334.153 283.825 334.875 281.256 335.033 Z M281.753 328.768 C283.228 328.579 285.545 327.797 286.901 327.031 288.257 326.264 290.157 324.641 291.123 323.424 292.089 322.207 293.392 319.699 294.02 317.851 294.681 315.903 295.017 313.418 294.82 311.941 294.633 310.539 293.912 308.427 293.217 307.248 292.523 306.068 291.133 304.494 290.128 303.749 289.124 303.005 286.815 302.256 284.996 302.086 282.953 301.895 280.786 302.157 279.327 302.773 278.027 303.321 276.04 304.553 274.911 305.51 273.782 306.468 272.156 308.665 271.298 310.393 270.248 312.509 269.742 314.738 269.748 317.219 269.753 319.247 270.244 321.84 270.84 322.986 271.436 324.13 272.602 325.696 273.431 326.465 274.26 327.233 275.868 328.143 277.005 328.487 278.141 328.831 280.278 328.958 281.753 328.768 Z" fill="#212121" fill-opacity="1" stroke="none"/>
</svg>
