<?xml version="1.0" encoding="UTF-8"?>
<svg width="341px" height="340px" viewBox="0 0 341 340" xmlns="http://www.w3.org/2000/svg" xmlns:xlink="http://www.w3.org/1999/xlink" version="1.1">
 <!-- Generated by Pixelmator Pro 1.5.4 -->
 <path id="Ellipse" d="M336 170 C336 78.324 261.791 4.006 170.25 4.006 78.709 4.006 4.5 78.324 4.5 170 4.5 261.676 78.709 335.994 170.25 335.994 261.791 335.994 336 261.676 336 170 Z" fill="#ffffff" fill-opacity="1" stroke="none"/>
 <path id="Logo-3" d="M170.801 296.259 C170.037 296.531 165.083 291.793 144.794 271.359 131.009 257.476 115.812 241.949 111.022 236.854 106.233 231.759 98.678 223.872 94.235 219.328 89.792 214.784 82.722 207.46 78.523 203.054 74.324 198.648 68.64 192.564 65.89 189.534 63.141 186.505 59.443 182.111 57.674 179.77 55.904 177.429 53.008 172.584 51.239 169.004 49.228 164.935 47.529 160.617 46.707 157.487 45.682 153.579 45.334 150.834 45.123 144.985 44.922 139.293 45.047 136.385 45.665 132.894 46.113 130.365 47.072 126.415 47.797 124.114 48.521 121.814 50.355 117.453 51.87 114.424 53.386 111.394 55.665 107.452 56.935 105.663 58.205 103.873 60.82 100.745 62.745 98.711 64.67 96.677 67.589 93.977 69.231 92.711 70.873 91.445 73.989 89.342 76.154 88.039 78.319 86.736 82.375 84.777 85.167 83.686 87.96 82.595 92.696 81.23 95.693 80.653 98.69 80.076 103.415 79.467 106.193 79.3 109.755 79.085 112.94 79.245 116.995 79.843 120.157 80.308 124.38 81.238 126.379 81.908 128.377 82.578 132.014 84.133 134.459 85.363 136.905 86.593 141.12 89.276 143.825 91.324 146.531 93.372 150.89 97.267 153.513 99.979 156.135 102.691 160.185 107.138 162.513 109.861 164.84 112.584 167.593 115.739 168.629 116.871 170.514 118.93 170.514 118.93 172.217 116.927 173.154 115.826 175.794 112.566 178.083 109.684 180.372 106.802 184.345 102.335 186.912 99.759 189.479 97.182 193.529 93.624 195.912 91.852 198.295 90.08 202.157 87.64 204.495 86.43 206.832 85.22 210.657 83.56 212.995 82.741 215.332 81.922 219.495 80.847 222.245 80.352 224.995 79.857 229.607 79.448 232.495 79.443 235.382 79.438 240.107 79.833 242.995 80.321 245.882 80.808 249.932 81.763 251.995 82.443 254.057 83.123 257.77 84.661 260.245 85.86 262.72 87.06 266.712 89.444 269.117 91.159 271.522 92.875 275.15 96.018 277.178 98.144 279.207 100.271 282.042 103.677 283.477 105.714 284.913 107.75 287.093 111.412 288.323 113.851 289.552 116.29 291.311 120.571 292.23 123.365 293.15 126.159 294.288 130.643 294.758 133.329 295.453 137.295 295.5 138.49 295.007 139.681 294.635 140.582 293.811 141.354 292.873 141.681 292.033 141.975 290.697 142.214 289.904 142.214 289.111 142.214 287.697 141.894 286.76 141.502 285.432 140.947 284.949 140.369 284.563 138.873 284.291 137.819 283.592 135.045 283.01 132.707 282.428 130.37 281.203 126.619 280.288 124.372 279.373 122.125 277.487 118.4 276.095 116.093 274.704 113.786 272.187 110.326 270.502 108.404 268.816 106.482 266.172 103.82 264.625 102.488 263.078 101.156 260.474 99.156 258.838 98.043 257.202 96.931 254.03 95.16 251.788 94.108 249.547 93.056 245.303 91.563 242.357 90.791 237.396 89.49 236.302 89.387 227.512 89.387 219.179 89.387 217.488 89.528 213.634 90.549 211.22 91.189 207.485 92.474 205.335 93.405 203.185 94.337 199.484 96.393 197.11 97.974 194.737 99.556 190.328 103.228 187.313 106.135 184.298 109.041 179.587 114.236 176.844 117.678 174.1 121.121 171.524 124.132 171.119 124.369 170.634 124.654 169.986 124.483 169.218 123.869 168.577 123.356 166.432 121.021 164.45 118.68 162.469 116.339 159.137 112.53 157.046 110.216 154.955 107.901 151.448 104.448 149.252 102.542 147.057 100.636 143.907 98.182 142.252 97.09 140.598 95.997 137.624 94.326 135.644 93.376 133.663 92.427 129.939 91.102 127.368 90.433 124.797 89.764 120.301 89.056 117.377 88.86 112.06 88.503 112.06 88.503 109.757 92.068 108.491 94.029 106.901 97.105 106.225 98.906 105.463 100.932 104.995 103.227 104.995 104.932 104.995 107.302 105.151 107.756 106.12 108.195 106.738 108.476 114.914 110.134 117.497 111.167 119.822 112.097 124.021 114.647 125.497 116.174 126.488 117.2 129.91 121.575 130.522 123.584 131.147 125.637 132.206 127.843 132.939 128.623 133.943 129.69 135.192 130.214 138.345 130.891 140.601 131.376 146.402 132.886 150 133.196 154.302 133.567 157.58 133.787 158.552 134.76 159.448 135.658 159.386 136.17 158.999 138.205 158.807 139.214 158.523 140.549 157.997 142.212 157.356 144.238 156.643 145.358 155.497 147.219 154.683 148.541 153.351 150.667 152 152.224 150.826 153.576 149.272 155.047 146.998 156.232 142.109 158.78 124.302 163.215 121.673 163.351 119.041 163.487 117.157 163.852 116.346 164.385 115.467 164.962 114.7 166.382 113.792 169.114 113.077 171.261 112.16 174.594 111.753 176.519 111.275 178.778 110.509 191.428 110.503 196.691 110.498 202.024 112.75 214.361 113.675 217.101 114.599 219.84 118.128 230.415 121.51 235.956 123.891 239.859 123.979 240.598 144.021 260.665 156.502 273.162 164.867 281.169 165.442 281.169 165.96 281.169 168.715 279.175 171.564 276.738 174.413 274.302 178.78 270.771 181.268 268.893 183.755 267.016 187.59 264.39 189.788 263.059 191.987 261.728 197.152 259.009 201.265 257.018 205.379 255.027 209.511 253.245 210.448 253.059 212.049 252.741 212.134 252.792 211.847 253.888 211.68 254.531 206.175 260.481 199.614 267.111 193.053 273.741 184.099 282.935 179.715 287.541 175.331 292.147 171.32 296.07 170.801 296.259 Z" fill="#531b93" fill-opacity="1" stroke="none"/>
 <path id="comb-and-scissor-2" d="M219.795 248.272 C219.516 248.366 215.861 245.73 211.672 242.414 205.185 237.28 204.078 236.205 204.209 235.17 204.297 234.472 210.418 226.446 218.568 216.342 232.775 198.731 232.775 198.731 232.762 193.78 232.75 188.829 232.75 188.829 229.94 186.333 227.129 183.838 227.129 183.838 226.776 172.423 226.582 166.146 226.301 157.066 226.153 152.247 226.005 147.428 225.751 140.274 225.59 136.35 225.425 132.331 225.49 129.215 225.74 129.214 225.984 129.214 226.443 129.72 226.76 130.338 227.078 130.957 228.504 137.883 229.929 145.728 231.354 153.574 233.17 163.709 233.964 168.251 234.758 172.794 235.885 179.325 236.47 182.766 237.054 186.208 237.699 189.68 237.902 190.483 238.254 191.875 239.096 190.919 256.239 169.656 272.18 149.884 274.365 147.37 275.607 147.367 276.663 147.364 278.784 148.836 284.218 153.34 291.369 159.269 291.42 159.325 290.454 160.297 289.724 161.031 289.233 161.162 288.495 160.817 287.953 160.564 285.519 158.784 283.086 156.862 280.653 154.941 278.381 153.296 278.037 153.208 277.693 153.12 277.421 153.459 277.432 153.961 277.443 154.476 278.813 155.919 280.58 157.277 282.3 158.598 284.602 160.436 285.697 161.359 287.524 162.902 287.621 163.106 286.89 163.858 286.157 164.613 285.685 164.344 280.882 160.442 277.423 157.632 275.501 156.375 275.171 156.705 274.839 157.037 275.102 157.568 275.955 158.292 276.661 158.891 278.972 160.8 281.091 162.535 283.209 164.271 284.943 165.907 284.944 166.172 284.945 166.437 284.603 166.786 284.184 166.948 283.701 167.135 281.583 165.753 278.366 163.15 275.177 160.569 273.134 159.233 272.836 159.534 272.537 159.834 274.334 161.626 277.7 164.384 282.494 168.313 282.959 168.836 282.273 169.527 281.586 170.218 281.34 170.165 279.853 169.007 278.943 168.298 276.796 166.573 275.083 165.174 273.37 163.775 271.6 162.489 271.15 162.318 270.565 162.095 270.383 162.244 270.51 162.842 270.608 163.301 272.266 164.932 274.195 166.465 276.123 167.998 278.377 169.782 279.203 170.43 280.602 171.529 280.648 171.665 279.874 172.443 279.1 173.222 278.708 173.004 274.062 169.219 271.322 166.986 268.823 165.16 268.51 165.161 268.197 165.162 267.942 165.368 267.943 165.62 267.943 165.872 269.465 167.276 271.325 168.741 273.185 170.206 275.488 172.11 276.443 172.973 277.932 174.318 278.085 174.654 277.521 175.338 276.939 176.043 276.289 175.664 271.839 172.027 269.075 169.768 266.598 167.837 266.333 167.738 266.068 167.638 265.93 167.901 266.026 168.323 266.123 168.745 267.565 170.175 269.232 171.502 270.899 172.829 273.147 174.643 274.227 175.534 275.998 176.994 276.116 177.23 275.421 177.929 274.727 178.628 274.155 178.309 269.611 174.691 266.839 172.485 264.301 170.679 263.971 170.68 263.641 170.681 263.447 170.903 263.54 171.173 263.632 171.443 265.92 173.447 268.624 175.627 271.328 177.807 273.557 179.77 273.577 179.988 273.598 180.206 273.277 180.598 272.866 180.86 272.299 181.22 270.878 180.335 266.998 177.204 263.39 174.293 261.721 173.23 261.349 173.605 260.976 173.98 261.313 174.551 262.489 175.538 263.406 176.309 265.83 178.254 267.875 179.862 271.309 182.562 271.531 182.848 270.782 183.602 270.213 184.174 269.763 184.272 269.276 183.928 268.894 183.658 266.624 181.865 264.231 179.943 261.838 178.021 259.654 176.367 259.377 176.267 259.1 176.167 258.952 176.43 259.048 176.852 259.144 177.273 260.716 178.834 262.541 180.32 264.367 181.807 266.574 183.58 267.447 184.261 268.572 185.137 268.937 185.752 268.702 186.37 268.52 186.85 268.114 187.176 267.8 187.095 267.486 187.013 265.023 185.172 262.327 183.003 259.06 180.374 257.259 179.227 256.927 179.561 256.594 179.896 258.033 181.35 261.244 183.923 263.893 186.046 266.19 188.117 266.347 188.526 266.505 188.934 266.391 189.513 266.094 189.812 265.707 190.202 264.203 189.272 260.77 186.521 258.139 184.412 255.648 182.558 255.235 182.4 254.792 182.232 254.488 182.393 254.496 182.793 254.502 183.167 255.799 184.444 257.378 185.631 258.956 186.818 261.259 188.667 262.495 189.74 264.522 191.498 264.667 191.765 263.971 192.465 263.275 193.165 262.688 192.828 257.97 189.015 254.546 186.248 252.57 184.958 252.247 185.28 251.924 185.602 252.334 186.223 253.439 187.085 254.366 187.808 256.618 189.619 258.443 191.11 260.269 192.601 261.764 194.192 261.765 194.647 261.766 195.101 261.429 195.473 261.017 195.474 260.604 195.475 258.057 193.702 255.357 191.533 252.148 188.955 250.277 187.76 249.958 188.082 249.638 188.403 250.819 189.644 253.367 191.664 255.511 193.363 257.887 195.265 258.648 195.889 259.869 196.892 259.952 197.133 259.354 197.955 258.723 198.825 258.334 198.605 253.371 194.567 249.883 191.73 247.94 190.449 247.705 190.832 247.498 191.169 247.963 191.96 248.807 192.707 249.611 193.417 251.394 194.883 252.77 195.964 254.147 197.045 255.83 198.448 256.511 199.081 257.612 200.106 257.666 200.316 257 200.987 256.334 201.657 255.672 201.274 251.012 197.518 247.517 194.702 245.608 193.464 245.275 193.799 244.942 194.134 245.274 194.692 246.272 195.476 247.096 196.122 249.348 197.907 251.276 199.443 253.235 201.002 254.784 202.625 254.786 203.119 254.787 203.605 254.45 204.003 254.038 204.004 253.625 204.005 251.083 202.235 248.387 200.07 245.692 197.905 243.325 196.297 243.128 196.495 242.931 196.694 243.342 197.343 244.042 197.938 244.741 198.532 246.545 200.012 248.05 201.227 249.555 202.442 251.344 203.957 252.025 204.594 253.116 205.615 253.176 205.84 252.527 206.493 251.878 207.146 251.17 206.733 246.552 203.011 243.205 200.313 241.141 198.963 240.835 199.271 240.529 199.579 240.794 200.097 241.569 200.705 242.236 201.228 244.664 203.17 246.964 205.021 250.73 208.052 251.069 208.462 250.377 209.159 249.71 209.83 249.477 209.839 248.622 209.23 248.08 208.843 246.67 207.742 245.488 206.783 243.829 205.436 243.423 205.267 243.704 206.037 243.903 206.585 245.021 207.932 246.186 209.031 247.352 210.13 248.274 211.317 248.235 211.669 248.196 212.021 250.293 214.267 252.895 216.66 256.107 219.615 258.017 221.815 258.847 223.517 259.519 224.894 260.217 227.28 260.397 228.818 260.627 230.781 260.476 232.479 259.892 234.512 259.433 236.106 258.528 238.256 257.879 239.291 257.23 240.326 255.886 241.848 254.891 242.673 253.896 243.499 252.138 244.49 250.986 244.876 249.834 245.262 247.871 245.556 246.625 245.53 245.378 245.504 243.332 245.031 242.078 244.479 240.823 243.927 239.003 242.684 238.032 241.717 237.062 240.751 235.772 238.94 235.166 237.693 234.56 236.446 233.903 234.085 233.707 232.446 233.351 229.466 233.351 229.466 228.341 225.415 225.585 223.187 223.146 221.362 222.919 221.361 222.693 221.359 222.581 221.677 222.671 222.068 222.761 222.458 224.198 223.862 225.865 225.189 227.532 226.516 229.737 228.295 230.765 229.143 232.092 230.237 232.54 230.934 232.309 231.542 232.129 232.014 231.709 232.333 231.374 232.252 231.039 232.17 228.579 230.327 225.905 228.156 222.731 225.578 220.876 224.379 220.556 224.701 220.237 225.022 221.804 226.565 225.074 229.15 228.722 232.034 230.05 233.378 229.972 234.108 229.913 234.659 229.629 235.111 229.341 235.111 229.053 235.112 226.704 233.428 224.122 231.369 221.539 229.31 219.127 227.553 218.761 227.465 218.395 227.377 218.096 227.515 218.097 227.771 218.097 228.028 220.365 230.087 223.135 232.346 225.906 234.605 228.086 236.716 227.98 237.036 227.875 237.357 227.403 237.695 226.932 237.787 226.461 237.88 224.903 236.973 223.469 235.771 222.035 234.569 219.81 232.742 218.526 231.712 217.241 230.682 216.072 230.032 215.927 230.268 215.782 230.504 217.432 232.115 219.594 233.847 221.756 235.58 224.12 237.476 224.849 238.061 226.047 239.024 226.104 239.219 225.456 240.109 224.761 241.062 224.667 241.032 222.366 239.115 221.061 238.027 218.843 236.239 217.437 235.141 216.031 234.043 214.595 233.072 214.245 232.984 213.896 232.896 213.61 233.038 213.61 233.3 213.611 233.563 215.86 235.545 218.608 237.706 221.524 239.999 223.553 241.948 223.479 242.387 223.41 242.8 222.884 243.125 222.31 243.108 221.736 243.091 219.714 241.785 217.818 240.205 215.922 238.624 213.776 236.901 213.049 236.374 211.929 235.563 211.64 235.524 211.148 236.122 210.678 236.692 211.262 237.378 214.225 239.733 216.237 241.333 218.617 243.352 219.514 244.221 220.846 245.512 221.068 246.012 220.723 246.951 220.491 247.584 220.074 248.178 219.795 248.272 Z M247.468 240.657 C249.329 240.538 250.543 240.118 251.788 239.162 252.74 238.431 253.99 236.853 254.565 235.655 255.285 234.156 255.609 232.505 255.603 230.356 255.599 228.476 255.272 226.599 254.783 225.634 254.336 224.754 253.489 223.507 252.901 222.862 252.313 222.218 251.223 221.376 250.48 220.99 249.736 220.605 248.16 220.301 246.978 220.313 245.796 220.326 244.34 220.611 243.743 220.948 243.146 221.283 242.058 222.123 241.325 222.813 240.592 223.504 239.7 224.636 239.342 225.329 238.984 226.022 238.537 227.635 238.348 228.913 238.117 230.488 238.265 232.12 238.808 233.974 239.307 235.676 240.228 237.32 241.243 238.323 242.142 239.21 243.328 240.135 243.878 240.379 244.429 240.623 246.044 240.748 247.468 240.657 Z M233.576 226.021 C233.722 225.874 233.16 225.154 232.327 224.422 231.494 223.689 229.625 222.107 228.173 220.905 226.722 219.703 225.375 218.885 225.18 219.087 224.985 219.288 225.728 220.198 226.83 221.108 227.932 222.018 229.841 223.556 231.073 224.525 232.303 225.494 233.43 226.167 233.576 226.021 Z M233.207 221.821 C233.413 221.827 233.581 221.547 233.58 221.2 233.58 220.853 232.316 219.56 230.773 218.328 229.23 217.095 227.743 216.005 227.469 215.905 227.195 215.805 227.05 216.063 227.146 216.478 227.242 216.893 228.561 218.262 230.076 219.522 231.592 220.781 233.001 221.816 233.207 221.821 Z M232.958 216.603 C233.127 216.433 232.713 215.75 232.039 215.085 231.364 214.42 230.362 213.732 229.812 213.555 229.14 213.341 229.443 213.841 230.73 215.074 231.786 216.086 232.788 216.774 232.958 216.603 Z M232.543 212.32 C232.826 212.319 233.058 211.994 233.057 211.597 233.056 211.2 232.814 210.728 232.521 210.547 232.227 210.366 231.862 210.344 231.709 210.498 231.556 210.651 231.565 211.125 231.729 211.549 231.893 211.974 232.259 212.321 232.543 212.32 Z M231.977 179.528 C230.623 180.387 230.155 181.02 230.064 181.488 229.974 181.957 230.025 182.665 230.178 183.062 230.331 183.458 230.998 183.782 231.661 183.78 232.323 183.778 233.135 183.449 233.466 183.048 233.796 182.648 233.991 181.939 233.898 181.474 233.806 181.008 233.335 180.38 232.853 180.078 L231.977 179.528 Z M238.51 183.763 C238.274 183.764 237.682 181.583 237.196 178.917 236.43 174.718 236.405 173.913 237.01 172.9 237.394 172.257 240.403 168.968 243.697 165.59 246.991 162.213 253.108 155.835 257.291 151.419 261.474 147.002 265.579 142.965 266.413 142.448 267.247 141.931 268.051 141.629 268.199 141.777 268.348 141.924 267.385 143.604 266.06 145.509 264.735 147.415 260.431 153.51 256.494 159.054 252.558 164.598 246.998 172.425 244.139 176.448 241.28 180.47 238.747 183.762 238.51 183.763 Z M193.442 228.744 C191.689 228.852 189.699 228.667 188.848 228.318 188.022 227.98 186.656 227.326 185.811 226.866 184.967 226.406 183.648 225.126 182.879 224.021 182.111 222.917 181.175 221.157 180.8 220.111 180.424 219.065 180.104 217.292 180.09 216.172 180.075 215.051 180.421 212.916 180.858 211.427 181.296 209.938 182.309 207.76 183.11 206.588 183.911 205.417 185.302 203.892 186.202 203.202 187.101 202.511 188.837 201.513 190.058 200.984 191.279 200.454 193.948 199.873 195.989 199.69 198.03 199.508 201.516 198.892 203.736 198.321 205.955 197.749 209.668 196.387 211.988 195.294 214.307 194.201 217.452 192.373 218.977 191.232 220.503 190.09 222.688 188.119 223.833 186.851 225.915 184.545 225.915 184.545 227.572 186.169 229.2 187.764 229.214 187.817 228.398 189.171 227.941 189.929 226.192 192.468 224.51 194.814 222.828 197.159 217.876 204.157 213.505 210.364 209.135 216.572 204.611 222.678 203.451 223.933 202.292 225.189 200.261 226.742 198.938 227.385 197.473 228.097 195.327 228.628 193.442 228.744 Z M193.807 224.139 C194.89 224 196.59 223.425 197.585 222.862 198.581 222.298 199.975 221.105 200.684 220.211 201.393 219.317 202.35 217.473 202.81 216.114 203.296 214.682 203.543 212.856 203.398 211.77 203.261 210.74 202.731 209.187 202.221 208.32 201.712 207.453 200.691 206.296 199.954 205.749 199.217 205.201 197.522 204.651 196.187 204.526 194.687 204.385 193.097 204.578 192.026 205.031 191.072 205.434 189.614 206.339 188.785 207.043 187.956 207.747 186.762 209.362 186.133 210.632 185.362 212.188 184.99 213.826 184.995 215.65 184.999 217.141 185.359 219.046 185.797 219.889 186.234 220.73 187.089 221.881 187.698 222.446 188.307 223.011 189.487 223.68 190.321 223.933 191.156 224.185 192.724 224.279 193.807 224.139 Z" fill="#212121" fill-opacity="1" stroke="none"/>
</svg>
